name rise32.9588peak41.5061fall63.4684.mot
datacolumns 19
datarows 27
range 0.42333300000000 0.46666600000000
endheader
time	ground_force1_vx	ground_force1_vy	ground_force1_vz	ground_force1_px	ground_force1_py	ground_force1_pz	ground_force2_vx	ground_force2_vy	ground_force2_vz	ground_force2_px	ground_force2_py	ground_force2_pz	ground_torque1_x	ground_torque1_y	ground_torque1_z	ground_torque2_x	ground_torque2_y	ground_torque2_z	
0.42333300000000	47.60909300000000	753.41065600000002	57.27463300000000	0.29997400000000	0.00000000000000	0.12263600000000	0.00000000000000	0.00000000000000	0.00000000000000	0.00000000000000	0.00000000000000	0.00000000000000	0.00000000000000	21.64995200000000	0.00000000000000	0.00000000000000	0.00000000000000	0.00000000000000	
0.42499800000000	46.92252300000000	754.43140900000003	57.18523400000000	0.29874900000000	0.00000000000000	0.12265000000000	0.00000000000000	0.00000000000000	0.00000000000000	0.00000000000000	0.00000000000000	0.00000000000000	0.00000000000000	21.60868400000000	0.00000000000000	0.00000000000000	0.00000000000000	0.00000000000000	
0.42666500000000	46.24680900000000	755.36963200000002	57.08394300000000	0.29756900000000	0.00000000000000	0.12266100000000	0.00000000000000	0.00000000000000	0.00000000000000	0.00000000000000	0.00000000000000	0.00000000000000	0.00000000000000	21.56180900000000	0.00000000000000	0.00000000000000	0.00000000000000	0.00000000000000	
0.42833100000000	45.58273200000000	756.22615800000005	56.97151100000000	0.29643600000000	0.00000000000000	0.12267100000000	0.00000000000000	0.00000000000000	0.00000000000000	0.00000000000000	0.00000000000000	0.00000000000000	0.00000000000000	21.50976100000000	0.00000000000000	0.00000000000000	0.00000000000000	0.00000000000000	
0.42999700000000	44.93095300000000	757.00178700000004	56.84866200000000	0.29535000000000	0.00000000000000	0.12267900000000	0.00000000000000	0.00000000000000	0.00000000000000	0.00000000000000	0.00000000000000	0.00000000000000	0.00000000000000	21.45296000000000	0.00000000000000	0.00000000000000	0.00000000000000	0.00000000000000	
0.43166500000000	44.29201300000000	757.69729800000005	56.71610100000000	0.29431000000000	0.00000000000000	0.12268400000000	0.00000000000000	0.00000000000000	0.00000000000000	0.00000000000000	0.00000000000000	0.00000000000000	0.00000000000000	21.39181300000000	0.00000000000000	0.00000000000000	0.00000000000000	0.00000000000000	
0.43333400000000	43.66633800000000	758.31345699999997	56.57451100000000	0.29331700000000	0.00000000000000	0.12268800000000	0.00000000000000	0.00000000000000	0.00000000000000	0.00000000000000	0.00000000000000	0.00000000000000	0.00000000000000	21.32671200000000	0.00000000000000	0.00000000000000	0.00000000000000	0.00000000000000	
0.43500700000000	43.05424100000000	758.85103400000003	56.42455000000000	0.29237000000000	0.00000000000000	0.12269000000000	0.00000000000000	0.00000000000000	0.00000000000000	0.00000000000000	0.00000000000000	0.00000000000000	0.00000000000000	21.25803600000000	0.00000000000000	0.00000000000000	0.00000000000000	0.00000000000000	
0.43667000000000	42.45592300000000	759.31080999999995	56.26685700000000	0.29146900000000	0.00000000000000	0.12269000000000	0.00000000000000	0.00000000000000	0.00000000000000	0.00000000000000	0.00000000000000	0.00000000000000	0.00000000000000	21.18615100000000	0.00000000000000	0.00000000000000	0.00000000000000	0.00000000000000	
0.43833700000000	41.87148100000000	759.69359099999997	56.10205000000000	0.29061300000000	0.00000000000000	0.12268900000000	0.00000000000000	0.00000000000000	0.00000000000000	0.00000000000000	0.00000000000000	0.00000000000000	0.00000000000000	21.11140800000000	0.00000000000000	0.00000000000000	0.00000000000000	0.00000000000000	
0.44000400000000	41.30090700000000	760.00021900000002	55.93072400000000	0.28980100000000	0.00000000000000	0.12268600000000	0.00000000000000	0.00000000000000	0.00000000000000	0.00000000000000	0.00000000000000	0.00000000000000	0.00000000000000	21.03414800000000	0.00000000000000	0.00000000000000	0.00000000000000	0.00000000000000	
0.44166300000000	40.74409900000000	760.23157900000001	55.75345700000000	0.28903100000000	0.00000000000000	0.12268200000000	0.00000000000000	0.00000000000000	0.00000000000000	0.00000000000000	0.00000000000000	0.00000000000000	0.00000000000000	20.95469600000000	0.00000000000000	0.00000000000000	0.00000000000000	0.00000000000000	
0.44333200000000	40.20086100000000	760.38861399999996	55.57080600000000	0.28830200000000	0.00000000000000	0.12267600000000	0.00000000000000	0.00000000000000	0.00000000000000	0.00000000000000	0.00000000000000	0.00000000000000	0.00000000000000	20.87336700000000	0.00000000000000	0.00000000000000	0.00000000000000	0.00000000000000	
0.44499700000000	39.67091100000000	760.47232799999995	55.38330800000000	0.28761200000000	0.00000000000000	0.12266900000000	0.00000000000000	0.00000000000000	0.00000000000000	0.00000000000000	0.00000000000000	0.00000000000000	0.00000000000000	20.79046300000000	0.00000000000000	0.00000000000000	0.00000000000000	0.00000000000000	
0.44666300000000	39.15388600000000	760.48380099999997	55.19148600000000	0.28695900000000	0.00000000000000	0.12266100000000	0.00000000000000	0.00000000000000	0.00000000000000	0.00000000000000	0.00000000000000	0.00000000000000	0.00000000000000	20.70627500000000	0.00000000000000	0.00000000000000	0.00000000000000	0.00000000000000	
0.44833000000000	38.64934800000000	760.42418899999996	54.99584200000000	0.28634100000000	0.00000000000000	0.12265200000000	0.00000000000000	0.00000000000000	0.00000000000000	0.00000000000000	0.00000000000000	0.00000000000000	0.00000000000000	20.62108100000000	0.00000000000000	0.00000000000000	0.00000000000000	0.00000000000000	
0.45000200000000	38.15679300000000	760.29474000000005	54.79686300000000	0.28575500000000	0.00000000000000	0.12264300000000	0.00000000000000	0.00000000000000	0.00000000000000	0.00000000000000	0.00000000000000	0.00000000000000	0.00000000000000	20.53514900000000	0.00000000000000	0.00000000000000	0.00000000000000	0.00000000000000	
0.45166300000000	37.67565200000000	760.09678899999994	54.59502100000000	0.28520000000000	0.00000000000000	0.12263200000000	0.00000000000000	0.00000000000000	0.00000000000000	0.00000000000000	0.00000000000000	0.00000000000000	0.00000000000000	20.44873800000000	0.00000000000000	0.00000000000000	0.00000000000000	0.00000000000000	
0.45333000000000	37.20530400000000	759.83177499999999	54.39077200000000	0.28467200000000	0.00000000000000	0.12262100000000	0.00000000000000	0.00000000000000	0.00000000000000	0.00000000000000	0.00000000000000	0.00000000000000	0.00000000000000	20.36209500000000	0.00000000000000	0.00000000000000	0.00000000000000	0.00000000000000	
0.45500200000000	36.74507800000000	759.50123599999995	54.18455600000000	0.28416800000000	0.00000000000000	0.12260900000000	0.00000000000000	0.00000000000000	0.00000000000000	0.00000000000000	0.00000000000000	0.00000000000000	0.00000000000000	20.27545600000000	0.00000000000000	0.00000000000000	0.00000000000000	0.00000000000000	
0.45666900000000	36.29426500000000	759.10681599999998	53.97680200000000	0.28368600000000	0.00000000000000	0.12259700000000	0.00000000000000	0.00000000000000	0.00000000000000	0.00000000000000	0.00000000000000	0.00000000000000	0.00000000000000	20.18904800000000	0.00000000000000	0.00000000000000	0.00000000000000	0.00000000000000	
0.45833600000000	35.85211900000000	758.65026999999998	53.76792300000000	0.28322300000000	0.00000000000000	0.12258500000000	0.00000000000000	0.00000000000000	0.00000000000000	0.00000000000000	0.00000000000000	0.00000000000000	0.00000000000000	20.10309000000000	0.00000000000000	0.00000000000000	0.00000000000000	0.00000000000000	
0.45999700000000	35.41786900000000	758.13345900000002	53.55832000000000	0.28277500000000	0.00000000000000	0.12257300000000	0.00000000000000	0.00000000000000	0.00000000000000	0.00000000000000	0.00000000000000	0.00000000000000	0.00000000000000	20.01778800000000	0.00000000000000	0.00000000000000	0.00000000000000	0.00000000000000	
0.46166400000000	34.99072600000000	757.55835900000000	53.34837900000000	0.28234000000000	0.00000000000000	0.12256100000000	0.00000000000000	0.00000000000000	0.00000000000000	0.00000000000000	0.00000000000000	0.00000000000000	0.00000000000000	19.93334100000000	0.00000000000000	0.00000000000000	0.00000000000000	0.00000000000000	
0.46333600000000	34.56988400000000	756.92705400000000	53.13847600000000	0.28191300000000	0.00000000000000	0.12254900000000	0.00000000000000	0.00000000000000	0.00000000000000	0.00000000000000	0.00000000000000	0.00000000000000	0.00000000000000	19.84993700000000	0.00000000000000	0.00000000000000	0.00000000000000	0.00000000000000	
0.46499900000000	34.15453600000000	756.24173900000005	52.92897300000000	0.28149300000000	0.00000000000000	0.12253700000000	0.00000000000000	0.00000000000000	0.00000000000000	0.00000000000000	0.00000000000000	0.00000000000000	0.00000000000000	19.76775400000000	0.00000000000000	0.00000000000000	0.00000000000000	0.00000000000000	
0.46666600000000	33.74387200000000	755.50471800000003	52.72022000000000	0.28107400000000	0.00000000000000	0.12252600000000	0.00000000000000	0.00000000000000	0.00000000000000	0.00000000000000	0.00000000000000	0.00000000000000	0.00000000000000	19.68696300000000	0.00000000000000	0.00000000000000	0.00000000000000	0.00000000000000	
